<?xml version="1.0" encoding="UTF-8" standalone="no"?>
<svg width="30px" height="30px" viewBox="0 0 30 30" version="1.1" xmlns="http://www.w3.org/2000/svg" xmlns:xlink="http://www.w3.org/1999/xlink">
    <!-- Generator: Sketch 3.8.2 (29753) - http://www.bohemiancoding.com/sketch -->
    <title>Artboard 1</title>
    <desc>Created with Sketch.</desc>
    <defs></defs>
    <g id="Page-1" stroke="none" stroke-width="1" fill="none" fill-rule="evenodd">
        <g id="Artboard-1">
            <g id="1f622">
                <g id="Group">
                    <circle id="Oval" fill="#FFDD67" cx="15" cy="15" r="15"></circle>
                    <path d="M20.342,23.92 C19.4415,23.3905 18.5715,23.0695 17.681,22.8565 C16.7935,22.6435 15.898,22.552 15.0005,22.551 C14.101,22.555 13.2065,22.6455 12.32,22.8585 C11.4295,23.0725 10.56,23.3915 9.659,23.92 C10.0445,22.9315 10.901,22.1545 11.857,21.6575 C12.823,21.1575 13.9165,20.9145 15.0005,20.9145 C16.0835,20.9165 17.1775,21.1575 18.142,21.6595 C19.0965,22.1565 19.954,22.9325 20.342,23.92" id="Shape" fill="#664E27"></path>
                    <path d="M25.375,14 C25.375,16.4855 23.36,18.5 20.875,18.5 C18.3895,18.5 16.375,16.485 16.375,14 C16.375,11.5165 18.39,9.5 20.875,9.5 C23.3595,9.5 25.375,11.515 25.375,14" id="Shape" fill="#FFFFFF"></path>
                    <ellipse id="Oval" fill="#664E27" cx="20.875" cy="14" rx="3" ry="3"></ellipse>
                    <g transform="translate(4.500000, 9.500000)" fill="#FFFFFF">
                        <ellipse id="Oval" cx="17.15" cy="6.7345" rx="1.406" ry="1.625"></ellipse>
                        <ellipse id="Oval" cx="15.2645" cy="4.5" rx="0.8225" ry="0.951"></ellipse>
                        <path d="M9.125,4.5 C9.125,6.9855 7.11,9 4.625,9 C2.1395,9 0.125,6.985 0.125,4.5 C0.125,2.0165 2.14,0 4.625,0 C7.1095,0 9.125,2.015 9.125,4.5" id="Shape"></path>
                    </g>
                    <ellipse id="Oval" fill="#664E27" cx="9.125" cy="14" rx="3" ry="3"></ellipse>
                    <g transform="translate(7.000000, 13.000000)" id="Oval" fill="#FFFFFF">
                        <ellipse cx="2.9005" cy="3.2345" rx="1.4055" ry="1.625"></ellipse>
                        <ellipse cx="1.015" cy="1" rx="0.822" ry="0.951"></ellipse>
                    </g>
                    <path d="M22.175,16.5 C19.665,19.9285 18.2275,23.083 18.2275,25.676 C18.2275,27.879 19.995,29.6645 22.1765,29.6645 C24.356,29.6645 26.1245,27.8795 26.1245,25.676 C26.125,23.083 24.6425,19.875 22.175,16.5" id="Shape" fill="#65B1EF"></path>
                    <g transform="translate(3.500000, 5.500000)" id="Shape" fill="#917524">
                        <path d="M22.1,3.326 C20.483,1.96 18.3385,1.3855 16.2545,1.7595 C15.9645,1.816 15.7095,0.7495 16.061,0.6815 C18.4665,0.25 20.94,0.912 22.807,2.489 C23.0775,2.7235 22.3225,3.5195 22.1,3.326"></path>
                        <path d="M6.743,1.6845 C4.659,1.3105 2.5155,1.8845 0.8975,3.251 C0.676,3.4455 -0.08,2.6485 0.1915,2.414 C2.0575,0.838 4.5315,0.1745 6.9375,0.6065 C7.289,0.674 7.033,1.741 6.743,1.6845"></path>
                    </g>
                </g>
            </g>
        </g>
    </g>
</svg>