<?xml version="1.0" encoding="UTF-8" standalone="no"?>
<svg width="30px" height="30px" viewBox="0 0 30 30" version="1.1" xmlns="http://www.w3.org/2000/svg" xmlns:xlink="http://www.w3.org/1999/xlink">
    <!-- Generator: Sketch 3.8.2 (29753) - http://www.bohemiancoding.com/sketch -->
    <title>Artboard 1</title>
    <desc>Created with Sketch.</desc>
    <defs></defs>
    <g id="Page-1" stroke="none" stroke-width="1" fill="none" fill-rule="evenodd">
        <g id="Artboard-1">
            <g id="1f611">
                <g id="Group">
                    <circle id="Oval" fill="#FFDD67" cx="15" cy="15" r="15"></circle>
                    <g transform="translate(4.000000, 10.500000)" id="Shape" fill="#664E27">
                        <path d="M18.9755,2.095 C18.9755,3.1875 18.0505,4.074 16.909,4.074 C15.7665,4.074 14.8415,3.188 14.8405,2.095 C14.841,1.401 18.9755,1.401 18.9755,2.095"></path>
                        <path d="M19.545,0.92 C18.6725,0.6195 17.788,0.474 16.9085,0.4705 C16.0335,0.465 15.1435,0.606 14.2685,0.905 C13.401,1.2095 12.5215,1.6695 11.826,2.368 C12.795,2.257 13.6425,2.16 14.473,2.1065 C15.303,2.049 16.099,2.027 16.904,2.0285 C17.709,2.03 18.5115,2.059 19.3405,2.1175 C20.175,2.171 21.0235,2.2655 21.993,2.3685 C21.2905,1.679 20.4105,1.2255 19.545,0.92"></path>
                        <path d="M7.159,2.095 C7.159,3.1875 6.234,4.074 5.0925,4.074 C3.95,4.074 3.025,3.188 3.024,2.095 C3.0245,1.401 7.159,1.401 7.159,2.095"></path>
                        <path d="M7.7275,0.92 C6.854,0.6195 5.9705,0.474 5.091,0.4705 C4.217,0.4645 3.3265,0.606 2.451,0.905 C1.584,1.2095 0.704,1.6695 0.0085,2.368 C0.9785,2.2565 1.825,2.16 2.6555,2.1065 C3.4855,2.049 4.281,2.027 5.0875,2.0285 C5.891,2.03 6.6945,2.0585 7.524,2.1175 C8.3575,2.171 9.207,2.2655 10.1755,2.3685 C9.4745,1.6785 8.594,1.2255 7.7275,0.92"></path>
                        <path d="M15.175,11.23 L6.83,11.23 C6.3935,11.23 6.3935,9.73 6.83,9.73 L15.1745,9.73 C15.6115,9.73 15.6115,11.23 15.175,11.23"></path>
                    </g>
                </g>
            </g>
        </g>
    </g>
</svg>