<?xml version="1.0" encoding="UTF-8" standalone="no"?>
<svg width="30px" height="30px" viewBox="0 0 30 30" version="1.1" xmlns="http://www.w3.org/2000/svg" xmlns:xlink="http://www.w3.org/1999/xlink">
    <!-- Generator: Sketch 3.8.2 (29753) - http://www.bohemiancoding.com/sketch -->
    <title>Artboard 1</title>
    <desc>Created with Sketch.</desc>
    <defs></defs>
    <g id="Page-1" stroke="none" stroke-width="1" fill="none" fill-rule="evenodd">
        <g id="Artboard-1">
            <g id="1f600">
                <g id="Group">
                    <circle id="Oval" fill="#FFDD67" cx="15" cy="15" r="15"></circle>
                    <path d="M24.5,16.66 C24.5,20.685 21.3445,25.3835 15,25.3835 C8.6535,25.3835 5.5,20.686 5.5,16.66 L15,16.66 L24.5,16.66" id="Shape" fill="#664E27"></path>
                    <path d="M16.05,19.4015 C15.719,19.3935 15.212,19.6895 15.3975,20.473 C15.4915,20.8685 16.075,21.347 16.075,21.983 C16.075,23.281 13.9235,23.281 13.9235,21.983 C13.9235,21.3455 14.5075,20.867 14.601,20.473 C14.7875,19.69 14.2785,19.394 13.9495,19.4015 C13.054,19.424 11.585,20.3515 11.585,21.9215 C11.585,23.686 13.1135,25.116 14.999,25.116 C16.884,25.116 18.412,23.6865 18.412,21.9215 C18.413,20.352 16.9435,19.4245 16.05,19.4015" id="Shape" fill="#4C3526"></path>
                    <path d="M19.55,24.51 C18.346,23.806 16.834,23.3605 14.9975,23.3605 C13.161,23.3605 11.649,23.806 10.4455,24.51 C11.6485,25.215 13.1605,25.6595 14.9975,25.6595 C16.8345,25.6595 18.346,25.215 19.55,24.51" id="Shape" fill="#FF717F"></path>
                    <polygon id="Shape" fill="#FFFFFF" points="5.5 16.5 24.5 16.5 24.5 19 5.5 19"></polygon>
                    <path d="M15,25.882 C8.505,25.882 5,21.13 5,16.6585 L5,16.1585 L25,16.1585 L25,16.6585 C25,21.13 21.495,25.882 15,25.882 L15,25.882 Z M6.0165,17.158 C6.2685,20.991 9.3985,24.882 15,24.882 C20.6015,24.882 23.7325,20.9915 23.9845,17.1585 L6.0165,17.1585 L6.0165,17.158 Z" id="Shape" fill="#664E27"></path>
                    <path d="M13.25,10 C13.25,12.209 11.458,14 9.25,14 C7.041,14 5.25,12.209 5.25,10 C5.25,7.792 7.041,6 9.25,6 C11.458,6 13.25,7.792 13.25,10" id="Shape" fill="#FFFFFF"></path>
                    <ellipse id="Oval" fill="#664E27" cx="9.25" cy="10" rx="2" ry="2"></ellipse>
                    <path d="M24.75,10 C24.75,12.209 22.958,14 20.75,14 C18.541,14 16.75,12.209 16.75,10 C16.75,7.792 18.541,6 20.75,6 C22.958,6 24.75,7.792 24.75,10" id="Shape" fill="#FFFFFF"></path>
                    <ellipse id="Oval" fill="#664E27" cx="20.75" cy="10" rx="2" ry="2"></ellipse>
                </g>
            </g>
        </g>
    </g>
</svg>