<?xml version="1.0" encoding="UTF-8" standalone="no"?>
<svg width="30px" height="30px" viewBox="0 0 30 30" version="1.1" xmlns="http://www.w3.org/2000/svg" xmlns:xlink="http://www.w3.org/1999/xlink">
    <!-- Generator: Sketch 3.8.2 (29753) - http://www.bohemiancoding.com/sketch -->
    <title>Artboard 1</title>
    <desc>Created with Sketch.</desc>
    <defs></defs>
    <g id="Page-1" stroke="none" stroke-width="1" fill="none" fill-rule="evenodd">
        <g id="Artboard-1">
            <g id="1f632">
                <g id="Group">
                    <circle id="Oval" fill="#FFDD67" cx="15" cy="15" r="15"></circle>
                    <ellipse id="Oval" fill="#664E27" cx="14.9995" cy="22.64" rx="4.3605" ry="4.3605"></ellipse>
                    <g transform="translate(4.500000, 9.000000)" fill="#FFFFFF">
                        <path d="M7.448,11.877 C8.0575,10.824 9.1965,10.115 10.5,10.115 C11.8035,10.115 12.9425,10.8235 13.552,11.8755 L7.448,11.877" id="Shape"></path>
                        <circle id="Oval" cx="4.624" cy="4.57" r="4.5"></circle>
                    </g>
                    <circle id="Oval" fill="#664E27" cx="9.1245" cy="13.57" r="2.25"></circle>
                    <ellipse id="Oval" fill="#FFFFFF" cx="20.875" cy="13.57" rx="4.5" ry="4.5"></ellipse>
                    <ellipse id="Oval" fill="#664E27" cx="20.875" cy="13.57" rx="2.25" ry="2.25"></ellipse>
                    <g transform="translate(5.000000, 4.000000)" id="Shape" fill="#917524">
                        <path d="M19.1,2.8885 C17.482,1.5225 15.3385,0.948 13.2535,1.322 C12.9645,1.3785 12.7095,0.312 13.061,0.244 C15.4655,-0.1875 17.939,0.4745 19.807,2.0515 C20.0775,2.286 19.3215,3.082 19.1,2.8885"></path>
                        <path d="M6.744,1.247 C4.66,0.873 2.5165,1.447 0.8975,2.8135 C0.676,3.008 -0.079,2.211 0.1915,1.9765 C2.0585,0.4005 4.5325,-0.263 6.9375,0.169 C7.289,0.2365 7.033,1.3035 6.744,1.247"></path>
                    </g>
                </g>
            </g>
        </g>
    </g>
</svg>