<?xml version="1.0" encoding="UTF-8" standalone="no"?>
<svg width="30px" height="30px" viewBox="0 0 30 30" version="1.1" xmlns="http://www.w3.org/2000/svg" xmlns:xlink="http://www.w3.org/1999/xlink">
    <!-- Generator: Sketch 3.8.2 (29753) - http://www.bohemiancoding.com/sketch -->
    <title>Artboard 1</title>
    <desc>Created with Sketch.</desc>
    <defs></defs>
    <g id="Page-1" stroke="none" stroke-width="1" fill="none" fill-rule="evenodd">
        <g id="Artboard-1">
            <g id="1f61d">
                <g id="Group">
                    <circle id="Oval" fill="#FFDD67" cx="15" cy="15" r="15"></circle>
                    <g transform="translate(4.500000, 10.000000)" id="Shape" fill="#664E27">
                        <path d="M18.62,2.57 C17.8965,2.3375 17.12,2.241 16.3395,2.3055 C16.1775,2.318 16.0165,2.3435 15.854,2.372 C15.9095,2.3415 15.9635,2.3075 16.019,2.279 C16.6135,1.9735 17.231,1.705 17.888,1.4625 C18.545,1.2125 19.2375,0.9995 19.9885,0.7095 C19.255,0.3755 18.4565,0.263 17.6565,0.306 C16.8565,0.352 16.055,0.5695 15.3295,0.9465 C14.604,1.3225 13.9585,1.8555 13.465,2.4985 C12.9815,3.141 12.6145,3.891 12.5665,4.7045 C13.3,4.4565 13.9365,4.2395 14.5765,4.095 C15.2105,3.9455 15.8315,3.855 16.468,3.799 C17.1035,3.7455 17.753,3.7285 18.429,3.7285 C19.1065,3.7265 19.799,3.741 20.5685,3.7265 C20.0295,3.1635 19.342,2.809 18.622,2.57"></path>
                        <path d="M5.67,0.9465 C4.9455,0.5695 4.1425,0.352 3.344,0.306 C2.544,0.263 1.7445,0.3755 1.012,0.7095 C1.762,0.9995 2.4555,1.2145 3.1115,1.4625 C3.7695,1.7045 4.386,1.973 4.9805,2.279 C5.036,2.3075 5.09,2.3415 5.1455,2.372 C4.9845,2.3435 4.8225,2.3185 4.66,2.3055 C3.8815,2.241 3.1035,2.3375 2.3795,2.57 C1.66,2.8095 0.9725,3.164 0.433,3.727 C1.2015,3.7415 1.894,3.727 2.5725,3.729 C3.2475,3.729 3.8965,3.7455 4.5335,3.7995 C5.169,3.855 5.7915,3.946 6.424,4.0955 C7.0615,4.24 7.6985,4.457 8.434,4.705 C8.386,3.8915 8.019,3.1415 7.5345,2.499 C7.042,1.8555 6.3965,1.3225 5.671,0.9465"></path>
                        <path d="M18.5,7.75 C18.5,10.9805 15.843,14.75 10.5,14.75 C5.1555,14.75 2.5,10.9805 2.5,7.75 L10.5,7.75 L18.5,7.75"></path>
                        <path d="M10.5,15.25 C4.98,15.25 2,11.3855 2,7.75 L2,7.25 L19,7.25 L19,7.75 C19,11.3855 16.0215,15.25 10.5,15.25 M3.0225,8.25 C3.284,11.245 5.886,14.25 10.5,14.25 C15.114,14.25 17.717,11.245 17.9785,8.25 L3.0225,8.25"></path>
                    </g>
                    <path d="M15,19 L10,19 L10,21.96 C10,27.3115 12.2385,30 14.999,30 C17.7605,30 19.999,27.3115 19.999,21.96 L19.999,19.001 L14.999,19.001" id="Shape" fill="#FF717F"></path>
                    <polygon id="Shape" fill="#E2596C" points="15.75 19 15 27.427 14.25 19"></polygon>
                    <polygon id="Shape" fill="#000000" opacity="0.33" points="10 19 20 19 20 20.6925 10 20.6925"></polygon>
                </g>
            </g>
        </g>
    </g>
</svg>