<?xml version="1.0" encoding="UTF-8" standalone="no"?>
<svg width="30px" height="30px" viewBox="0 0 30 30" version="1.1" xmlns="http://www.w3.org/2000/svg" xmlns:xlink="http://www.w3.org/1999/xlink">
    <!-- Generator: Sketch 3.8.2 (29753) - http://www.bohemiancoding.com/sketch -->
    <title>Artboard 1</title>
    <desc>Created with Sketch.</desc>
    <defs></defs>
    <g id="Page-1" stroke="none" stroke-width="1" fill="none" fill-rule="evenodd">
        <g id="Artboard-1">
            <g id="1f609">
                <g id="Group">
                    <circle id="Oval" fill="#FFDD67" cx="15" cy="15" r="15"></circle>
                    <g transform="translate(7.500000, 11.500000)" fill="#664E27">
                        <path d="M2.662,10.309 C3.777,10.648 4.8045,10.7685 5.826,10.766 C6.8435,10.7645 7.836,10.629 8.8135,10.3955 C9.786,10.156 10.7325,9.8235 11.6395,9.361 C12.5485,8.895 13.408,8.321 14.247,7.5125 C14.087,8.6855 13.3615,9.752 12.455,10.5425 C11.54,11.3395 10.417,11.8875 9.242,12.171 C8.066,12.4525 6.817,12.4775 5.6395,12.186 C4.4735,11.896 3.342,11.279 2.662,10.3095" id="Shape"></path>
                        <path d="M9,3.9 C9,3.9 12.957,4.7015 16,6 C16,6 13.665,1.4055 9,3.9" id="Shape"></path>
                        <path d="M9,3.9 C9,3.9 12.957,1.736 16,0.4375 C16,0.4375 14.2715,4.9775 9,3.9" id="Shape"></path>
                        <ellipse id="Oval" cx="2.626" cy="3.296" rx="2.25" ry="2.25"></ellipse>
                    </g>
                    <g transform="translate(4.500000, 5.000000)" id="Shape" fill="#917524">
                        <path d="M20.1,6.4575 C18.483,5.0915 16.3385,4.517 14.2545,4.891 C13.9645,4.9475 13.7095,3.881 14.061,3.813 C16.4665,3.3815 18.94,4.0435 20.807,5.6205 C21.0775,5.855 20.3225,6.651 20.1,6.4575"></path>
                        <path d="M6.744,1.458 C4.66,1.084 2.516,1.658 0.898,3.0245 C0.6765,3.219 -0.0795,2.422 0.192,2.1875 C2.058,0.6115 4.532,-0.052 6.9385,0.38 C7.29,0.4475 7.034,1.5145 6.744,1.458"></path>
                    </g>
                </g>
            </g>
        </g>
    </g>
</svg>