<?xml version="1.0" encoding="UTF-8" standalone="no"?>
<svg width="30px" height="30px" viewBox="0 0 30 30" version="1.1" xmlns="http://www.w3.org/2000/svg" xmlns:xlink="http://www.w3.org/1999/xlink">
    <!-- Generator: Sketch 3.8.2 (29753) - http://www.bohemiancoding.com/sketch -->
    <title>Artboard 1</title>
    <desc>Created with Sketch.</desc>
    <defs></defs>
    <g id="Page-1" stroke="none" stroke-width="1" fill="none" fill-rule="evenodd">
        <g id="Artboard-1">
            <g id="1f616">
                <g id="Group">
                    <ellipse id="Oval" fill="#FFDD67" cx="15" cy="15.2306557" rx="15" ry="14.7540984"></ellipse>
                    <g transform="translate(4.500000, 12.295082)" id="Shape" fill="#664E27">
                        <path d="M18.62,2.51311475 C17.8965,2.28442623 17.12,2.1895082 16.3405,2.25295082 C16.1775,2.2652459 16.0165,2.29032787 15.855,2.31836066 C15.9095,2.28836066 15.9635,2.25491803 16.02,2.22688525 C16.614,1.92639344 17.231,1.66229508 17.888,1.42377049 C18.545,1.17786885 19.2375,0.968360656 19.9885,0.683114754 C19.255,0.354590164 18.4565,0.243934426 17.6565,0.286229508 C16.8565,0.33147541 16.055,0.545409836 15.3295,0.916229508 C14.604,1.28606557 13.9585,1.81032787 13.466,2.44278689 C12.9815,3.0747541 12.6145,3.81245902 12.5665,4.61262295 C13.3,4.36868852 13.9365,4.1552459 14.5765,4.01311475 C15.2105,3.86606557 15.8315,3.77704918 16.468,3.72196721 C17.1035,3.66934426 17.753,3.65262295 18.429,3.65262295 C19.1065,3.65065574 19.799,3.66491803 20.5685,3.65065574 C20.0295,3.09737705 19.342,2.74868852 18.622,2.51311475"></path>
                        <path d="M5.6695,0.915245902 C4.945,0.54442623 4.142,0.330491803 3.3435,0.285245902 C2.5435,0.24295082 1.745,0.353606557 1.0115,0.682131148 C1.7625,0.967377049 2.455,1.17885246 3.112,1.42278689 C3.769,1.66081967 4.3855,1.92491803 4.98,2.22590164 C5.0355,2.25393443 5.0895,2.28737705 5.145,2.31737705 C4.984,2.28934426 4.822,2.2647541 4.6595,2.25196721 C3.881,2.18852459 3.104,2.28344262 2.379,2.51213115 C1.66,2.74770492 0.972,3.09639344 0.4325,3.65016393 C1.201,3.66442623 1.8935,3.65016393 2.572,3.65213115 C3.247,3.65213115 3.896,3.66836066 4.533,3.72147541 C5.1685,3.77606557 5.791,3.86557377 6.4235,4.01262295 C7.061,4.1547541 7.698,4.36819672 8.4335,4.61213115 C8.3855,3.81196721 8.0185,3.0742623 7.534,2.44229508 C7.042,1.80983607 6.3965,1.28508197 5.6705,0.915245902"></path>
                    </g>
                    <g transform="translate(4.000000, 7.377049)" id="Shape" fill="#917524">
                        <path d="M6.2885,0.570491803 C4.6705,1.91409836 2.527,2.47918033 0.442,2.11131148 C0.153,2.0557377 -0.102,3.1047541 0.2495,3.17163934 C2.654,3.59606557 5.1275,2.94491803 6.9955,1.39377049 C7.266,1.16311475 6.51,0.380163934 6.2885,0.570491803"></path>
                        <path d="M21.555,2.03606557 C19.471,2.40393443 17.3275,1.83934426 15.7095,0.495245902 C15.488,0.303934426 14.732,1.08786885 15.0035,1.31852459 C16.8695,2.86868852 19.3435,3.52131148 21.7495,3.09639344 C22.101,3.03 21.845,1.98 21.555,2.03606557"></path>
                    </g>
                    <polygon id="Shape" fill="#664E27" points="21.4575 19.8590164 18.2545 21.9998361 14.9985 19.195082 11.7525 21.9968852 8.545 19.8540984 5.5 23.4309836 8.545 21.7622951 11.7585 24.8921311 15.01 22.4040984 18.253 24.8827869 21.457 21.7559016 24.5 23.4295082"></polygon>
                </g>
            </g>
        </g>
    </g>
</svg>