<?xml version="1.0" encoding="UTF-8" standalone="no"?>
<svg width="60px" height="60px" viewBox="0 0 60 60" version="1.1" xmlns="http://www.w3.org/2000/svg" xmlns:xlink="http://www.w3.org/1999/xlink">
    <!-- Generator: Sketch 3.8.2 (29753) - http://www.bohemiancoding.com/sketch -->
    <title>Artboard 1</title>
    <desc>Created with Sketch.</desc>
    <defs></defs>
    <g id="Page-1" stroke="none" stroke-width="1" fill="none" fill-rule="evenodd">
        <g id="Artboard-1">
            <g id="1f603-(1)">
                <path d="M30,60 C46.5685425,60 60,46.5685425 60,30 C60,13.4314575 46.5685425,0 30,0 C13.4314575,0 0,13.4314575 0,30 C0,46.5685425 13.4314575,60 30,60 Z M46,35 C46,41.459 40.686,49 30,49 C19.311,49 14,41.459 14,35 L30,35 L46,35 Z M18.5,27 C20.9852814,27 23,24.9852814 23,22.5 C23,20.0147186 20.9852814,18 18.5,18 C16.0147186,18 14,20.0147186 14,22.5 C14,24.9852814 16.0147186,27 18.5,27 Z M41.5,27 C43.9852814,27 46,24.9852814 46,22.5 C46,20.0147186 43.9852814,18 41.5,18 C39.0147186,18 37,20.0147186 37,22.5 C37,24.9852814 39.0147186,27 41.5,27 Z" id="Combined-Shape" fill="#000000"></path>
                <g id="Group" transform="translate(13.000000, 34.000000)">
                    <path d="M17,16 C5.96,16 0,8.271 0,1 L0,0 L34,0 L34,1 C34,8.271 28.041,16 17,16 M2.043,2 C2.567,7.989 7.771,14 17,14 C26.229,14 31.432,7.99 31.955,2 L2.043,2" id="Shape"></path>
                </g>
            </g>
        </g>
    </g>
</svg>